# xmcd CD database file
#
# Track frame offsets:
#	150
#	33282
#	51937
#
# Disc length: 1132 seconds
#
# Revision: 5
# Processed by: cddbd v1.5.1PL0 Copyright (c) Steve Scherf et al.
# Submitted via: CDex 1.51
#
DISCID=1e046a03
DTITLE=まんが日本メタルばなし - まんが日本メタルばなし
DYEAR=1997
DGENRE=Heavy Metal
TTITLE0=まんが日本メタルばなし
TTITLE1=まんが日本メタルばなし(Radio Edit)
TTITLE2=まんが日本メタルばなし(Original Karaoke)
EXTD=YEAR: 1997
EXTT0=
EXTT1=
EXTT2=
PLAYORDER=
